# xmcd CD database file
#
# Track frame offsets:
#	150
#	21328
#	39791
#	54535
#	71206
#	86393
#	103727
#	120115
#	135543
#	152964
#	166465
#	183628
#	198030
#	212823
#	229486
#
# Disc length: 3313 seconds
#
# Revision: 0
# Processed by: cddbd v1.4PL0 Copyright (c) Steve Scherf et al.
# Submitted via: CDex 1.51
#
DISCID=cc0cef0f
DTITLE=Various Artist - Line Dance Hits From The Jukebox Vol.1
DYEAR=2001
DGENRE=Country
TTITLE0=The Ryes/Western Rye
TTITLE1=Redfern and Crookes/One More Broken Hearted Man
TTITLE2=Jim Rast and The Malones/Cripple Creek
TTITLE3=Dean Brothers/Memories Are Made Of This
TTITLE4=Tony Lewis/Two More Pairs Of Feet
TTITLE5=Dave Sheriff/Playa Silencio
TTITLE6=The Grants/On A Mission
TTITLE7=Ronnie Beard/Por Ti Sere
TTITLE8=Rick Tippe/Hardwood Stomp
TTITLE9=Merv and Maria/Gentle Warm and Kind
TTITLE10=Lisa Capitanelli/Do The Dance
TTITLE11=Pocos Feat. Taysha/These Boots Are Made For Walking
TTITLE12=Johnny Earle/Play The Music
TTITLE13=Redfern and Crookes/Madalaina
TTITLE14=Borderers/Hot Love
EXTD=YEAR: 2001
EXTT0=
EXTT1=
EXTT2=
EXTT3=
EXTT4=
EXTT5=
EXTT6=
EXTT7=
EXTT8=
EXTT9=
EXTT10=
EXTT11=
EXTT12=
EXTT13=
EXTT14=
PLAYORDER=
